<?xml version="1.0" encoding="UTF-8"?>
<!DOCTYPE svg PUBLIC "-//W3C//DTD SVG 1.1//EN" "http://www.w3.org/Graphics/SVG/1.1/DTD/svg11.dtd">
<!-- Creator: CorelDRAW 2017 -->
<svg xmlns="http://www.w3.org/2000/svg" xml:space="preserve" width="200px" height="200px" version="1.1" style="shape-rendering:geometricPrecision; text-rendering:geometricPrecision; image-rendering:optimizeQuality; fill-rule:evenodd; clip-rule:evenodd"
viewBox="0 0 136.055 136.055"
 xmlns:xlink="http://www.w3.org/1999/xlink">
 <defs>
  <style type="text/css">
   <![CDATA[
    .fil0 {fill:#0083C4}
    .fil1 {fill:white;fill-rule:nonzero}
   ]]>
  </style>
 </defs>
 <g id="Layer_x0020_1">
  <metadata id="CorelCorpID_0Corel-Layer"/>
  <rect class="fil0" width="136.054" height="136.054"/>
  <path class="fil1" d="M23.812 47.258c1.632,-10.158 7.558,-15.238 17.777,-15.238 8.829,0 17.96,0.393 27.393,1.179l-1.724 11.247 -23.673 0c-2.116,0 -3.719,0.515 -4.807,1.543 -1.089,1.027 -1.784,2.63 -2.087,4.807l-1.632 10.793 25.125 0.726 -1.724 10.612 -25.306 0.635 -4.082 25.578 -13.423 0 8.163 -51.882z"/>
  <path id="1" class="fil1" d="M82.224 99.685c-3.87,0 -7.226,-0.847 -10.068,-2.54 -2.842,-1.693 -4.263,-4.777 -4.263,-9.252 0,-1.088 0.091,-2.207 0.272,-3.356l5.896 -37.097c1.572,-10.28 7.558,-15.42 17.959,-15.42 8.042,0 17.173,0.393 27.392,1.179l-1.814 11.247 -23.673 0c-2.117,0 -3.719,0.515 -4.807,1.543 -1.089,1.027 -1.814,2.63 -2.177,4.807l-1.361 8.707 25.125 0.816 -1.724 10.613 -25.306 0.725 -1.451 9.343c-0.121,0.846 -0.181,1.421 -0.181,1.723 0,1.572 0.453,2.691 1.36,3.356 0.907,0.665 2.298,0.998 4.173,0.998l23.31 0 -1.723 11.247c-11.368,0.847 -20.348,1.3 -26.939,1.361z"/>
 </g>
</svg>
